<svg width="16" height="16" viewBox="0 0 16 16" fill="none" xmlns="http://www.w3.org/2000/svg">
<path d="M6 10.3335C6.66667 10.3335 7.25638 10.3335 8 10.3335C8.74362 10.3335 9.33333 10.3335 10 10.3335" stroke="#020617" stroke-width="1.5" stroke-linecap="round" stroke-linejoin="round"/>
<path d="M9.66675 6.99984V6.6665" stroke="#020617" stroke-width="1.5" stroke-linecap="round" stroke-linejoin="round"/>
<path d="M6.33325 6.99984V6.6665" stroke="#020617" stroke-width="1.5" stroke-linecap="round" stroke-linejoin="round"/>
<path d="M2 8C2 5.17157 2 3.75736 2.87868 2.87868C3.75736 2 5.17157 2 8 2C10.8284 2 12.2426 2 13.1213 2.87868C14 3.75736 14 5.17157 14 8C14 10.8284 14 12.2426 13.1213 13.1213C12.2426 14 10.8284 14 8 14C5.17157 14 3.75736 14 2.87868 13.1213C2 12.2426 2 10.8284 2 8Z" stroke="#020617" stroke-width="1.5" stroke-linecap="round" stroke-linejoin="round"/>
</svg>
